<?xml version="1.0" encoding="UTF-8" ?>
<!DOCTYPE svg PUBLIC "-//W3C//DTD SVG 1.1//EN" "http://www.w3.org/Graphics/SVG/1.1/DTD/svg11.dtd">
<svg width="365pt" height="473pt" viewBox="0 0 365 473" version="1.1" xmlns="http://www.w3.org/2000/svg">
<g id="#010101ff">
</g>
<g id="#fdfcfdff">
<path fill="#fdfcfd" opacity="1.00" d=" M 54.42 28.95 C 56.14 15.64 68.79 5.31 82.04 5.37 C 151.69 5.93 221.34 7.15 291.00 7.82 C 298.57 7.97 306.42 10.70 311.54 16.46 C 317.00 22.13 319.80 30.16 319.40 38.00 C 319.17 44.94 319.69 51.96 318.85 58.85 C 318.73 61.59 318.73 64.34 318.77 67.08 C 324.48 80.85 329.66 94.84 335.51 108.55 C 338.10 114.98 341.06 121.25 343.26 127.83 C 347.81 142.45 351.75 157.53 351.46 172.95 C 351.41 189.04 352.69 205.05 352.89 221.14 C 353.68 230.72 353.50 240.38 353.78 249.99 C 354.54 260.34 354.47 270.73 354.79 281.10 C 355.66 292.42 355.61 303.79 355.81 315.15 L 356.21 315.79 C 356.51 335.60 357.79 355.36 357.80 375.17 L 358.20 375.82 C 358.31 383.22 358.71 390.62 358.62 398.03 C 358.33 410.89 351.79 423.85 340.48 430.39 C 321.98 439.19 303.59 448.22 285.10 457.03 C 278.98 459.71 273.37 463.63 266.83 465.30 C 260.04 467.29 252.82 467.12 245.87 466.26 C 175.18 456.17 104.31 447.35 33.49 438.29 C 20.74 436.33 9.91 426.18 6.50 413.84 C 5.09 409.03 5.08 403.95 5.27 398.99 C 7.76 325.98 10.55 252.99 13.17 179.98 C 13.49 170.26 13.30 160.46 15.23 150.88 C 16.92 142.71 19.34 134.65 22.96 127.11 C 28.03 117.29 33.35 107.59 38.62 97.87 C 44.12 88.14 49.85 78.54 54.97 68.61 C 54.15 65.12 53.16 61.61 53.32 57.99 C 53.57 48.30 53.81 38.61 54.42 28.95 M 76.22 23.28 C 72.45 25.38 70.30 29.69 70.36 33.94 C 70.37 42.61 69.23 51.25 69.49 59.91 C 69.97 62.68 71.65 65.90 74.56 66.60 C 62.24 88.32 49.92 110.06 38.36 132.20 C 32.40 143.49 29.73 156.30 29.67 169.02 C 27.22 247.01 23.99 324.98 21.47 402.98 C 20.76 411.66 27.06 420.53 35.73 422.14 C 86.89 428.32 138.02 434.77 189.13 441.36 C 211.50 444.13 233.74 447.83 256.13 450.40 C 257.87 450.33 259.61 450.26 261.35 450.20 C 261.61 444.16 260.52 437.84 262.88 432.08 C 262.64 437.88 262.55 443.69 262.54 449.50 C 285.58 438.56 308.47 427.31 331.63 416.61 C 338.20 413.36 341.75 406.15 342.45 399.10 C 342.71 389.70 341.72 380.33 341.63 370.94 C 340.95 343.62 339.73 316.32 339.21 288.99 C 338.24 276.69 338.83 264.32 337.80 252.03 C 337.31 228.34 336.19 204.68 335.55 181.00 C 335.27 174.33 335.77 167.61 334.72 160.99 C 333.29 147.59 328.80 134.77 323.81 122.33 C 318.15 108.87 313.01 95.21 307.50 81.69 C 305.86 77.17 303.57 72.79 303.04 67.94 C 302.08 60.30 303.43 52.65 303.27 45.00 C 303.19 39.64 304.32 33.63 300.77 29.06 C 298.23 25.03 293.22 23.79 288.74 24.36 C 220.83 23.39 152.91 22.66 84.99 21.73 C 82.02 21.66 78.84 21.68 76.22 23.28 Z" />
</g>
<g id="#a6be41ff">
<path fill="#a6be41" opacity="1.00" d=" M 76.22 23.28 C 78.84 21.68 82.02 21.66 84.99 21.73 C 152.91 22.66 220.83 23.39 288.74 24.36 C 287.02 26.76 286.03 29.56 285.62 32.47 C 283.47 44.57 280.15 56.49 278.73 68.69 C 277.68 71.45 274.36 70.74 272.06 70.80 C 206.23 69.38 140.38 68.11 74.56 66.60 C 71.65 65.90 69.97 62.68 69.49 59.91 C 69.23 51.25 70.37 42.61 70.36 33.94 C 70.30 29.69 72.45 25.38 76.22 23.28 Z" />
</g>
<g id="#133623ff">
<path fill="#133623" opacity="1.00" d=" M 288.74 24.36 C 293.22 23.79 298.23 25.03 300.77 29.06 C 304.32 33.63 303.19 39.64 303.27 45.00 C 303.43 52.65 302.08 60.30 303.04 67.94 C 303.57 72.79 305.86 77.17 307.50 81.69 C 313.01 95.21 318.15 108.87 323.81 122.33 C 328.80 134.77 333.29 147.59 334.72 160.99 C 335.77 167.61 335.27 174.33 335.55 181.00 C 336.19 204.68 337.31 228.34 337.80 252.03 C 338.83 264.32 338.24 276.69 339.21 288.99 C 339.73 316.32 340.95 343.62 341.63 370.94 C 341.72 380.33 342.71 389.70 342.45 399.10 C 341.75 406.15 338.20 413.36 331.63 416.61 C 308.47 427.31 285.58 438.56 262.54 449.50 C 262.55 443.69 262.64 437.88 262.88 432.08 C 263.92 412.38 262.61 392.65 262.89 372.93 C 263.29 303.91 262.86 234.86 264.39 165.84 C 264.86 160.25 265.61 154.66 266.97 149.21 C 272.97 125.53 281.43 102.57 289.44 79.53 C 289.95 77.82 289.93 75.47 287.98 74.69 C 286.29 74.00 284.77 75.66 284.21 77.09 C 279.66 88.69 275.74 100.52 271.53 112.25 C 265.48 131.09 258.06 149.94 257.42 169.96 C 256.68 239.96 255.99 309.97 256.12 379.97 C 256.36 403.45 255.46 426.94 256.13 450.40 C 233.74 447.83 211.50 444.13 189.13 441.36 C 138.02 434.77 86.89 428.32 35.73 422.14 C 27.06 420.53 20.76 411.66 21.47 402.98 C 23.99 324.98 27.22 247.01 29.67 169.02 C 29.73 156.30 32.40 143.49 38.36 132.20 C 49.92 110.06 62.24 88.32 74.56 66.60 C 140.38 68.11 206.23 69.38 272.06 70.80 C 274.36 70.74 277.68 71.45 278.73 68.69 C 280.15 56.49 283.47 44.57 285.62 32.47 C 286.03 29.56 287.02 26.76 288.74 24.36 M 64.34 150.50 C 56.90 152.93 51.52 160.18 51.31 168.00 C 49.64 232.36 47.16 296.70 45.21 361.05 C 44.57 369.84 50.04 378.33 57.75 382.29 C 62.14 384.56 67.19 384.46 71.99 384.95 C 112.33 389.08 152.71 392.91 193.04 397.16 C 200.72 397.57 209.01 400.01 216.23 396.19 C 223.82 392.58 228.38 384.26 228.17 375.97 C 228.64 309.62 229.76 243.27 230.68 176.92 C 230.53 168.92 225.23 161.19 217.63 158.52 C 214.89 157.42 211.91 157.44 209.02 157.38 C 162.99 154.98 116.98 152.11 70.95 149.55 C 68.71 149.45 66.45 149.72 64.34 150.50 Z" />
</g>
<g id="#fbeed0ff">
<path fill="#fbeed0" opacity="1.00" d=" M 284.21 77.09 C 284.77 75.66 286.29 74.00 287.98 74.69 C 289.93 75.47 289.95 77.82 289.44 79.53 C 281.43 102.57 272.97 125.53 266.97 149.21 C 265.61 154.66 264.86 160.25 264.39 165.84 C 262.86 234.86 263.29 303.91 262.89 372.93 C 262.61 392.65 263.92 412.38 262.88 432.08 C 260.52 437.84 261.61 444.16 261.35 450.20 C 259.61 450.26 257.87 450.33 256.13 450.40 C 255.46 426.94 256.36 403.45 256.12 379.97 C 255.99 309.97 256.68 239.96 257.42 169.96 C 258.06 149.94 265.48 131.09 271.53 112.25 C 275.74 100.52 279.66 88.69 284.21 77.09 Z" />
<path fill="#fbeed0" opacity="1.00" d=" M 64.34 150.50 C 66.45 149.72 68.71 149.45 70.95 149.55 C 116.98 152.11 162.99 154.98 209.02 157.38 C 211.91 157.44 214.89 157.42 217.63 158.52 C 225.23 161.19 230.53 168.92 230.68 176.92 C 229.76 243.27 228.64 309.62 228.17 375.97 C 228.38 384.26 223.82 392.58 216.23 396.19 C 209.01 400.01 200.72 397.57 193.04 397.16 C 152.71 392.91 112.33 389.08 71.99 384.95 C 67.19 384.46 62.14 384.56 57.75 382.29 C 50.04 378.33 44.57 369.84 45.21 361.05 C 47.16 296.70 49.64 232.36 51.31 168.00 C 51.52 160.18 56.90 152.93 64.34 150.50 Z" />
</g>
</svg>
